<svg width="32" height="33" viewBox="0 0 32 33" fill="none" xmlns="http://www.w3.org/2000/svg">
<rect y="0.5" width="32" height="32" rx="8" fill="#D7FFEC"/>
<path d="M10.166 17.3333C10.166 14.5719 12.4045 12.3333 15.166 12.3333M10.166 17.3333C10.166 18.707 10.7199 19.9513 11.6166 20.855C11.7031 20.9421 11.7463 20.9857 11.7718 21.0276C11.7962 21.0676 11.8103 21.102 11.8212 21.1475C11.8326 21.1953 11.8326 21.2496 11.8326 21.3582V23.3333C11.8326 23.5667 11.8326 23.6834 11.878 23.7725C11.918 23.8509 11.9817 23.9146 12.0601 23.9546C12.1493 24 12.2659 24 12.4993 24H14.0826C14.316 24 14.4327 24 14.5218 23.9546C14.6002 23.9146 14.6639 23.8509 14.7039 23.7725C14.7493 23.6834 14.7493 23.5667 14.7493 23.3333V23C14.7493 22.7666 14.7493 22.65 14.7947 22.5608C14.8347 22.4824 14.8984 22.4187 14.9768 22.3787C15.0659 22.3333 15.1826 22.3333 15.416 22.3333H16.5826C16.816 22.3333 16.9327 22.3333 17.0218 22.3787C17.1002 22.4187 17.1639 22.4824 17.2039 22.5608C17.2493 22.65 17.2493 22.7666 17.2493 23V23.3333C17.2493 23.5667 17.2493 23.6834 17.2947 23.7725C17.3347 23.8509 17.3984 23.9146 17.4768 23.9546C17.5659 24 17.6826 24 17.916 24H19.4993C19.7327 24 19.8494 24 19.9385 23.9546C20.0169 23.9146 20.0807 23.8509 20.1206 23.7725C20.166 23.6834 20.166 23.5667 20.166 23.3333V22.5203C20.166 22.3519 20.166 22.2677 20.19 22.2001C20.213 22.1353 20.2419 22.09 20.291 22.0419C20.3422 21.9917 20.4289 21.9514 20.6024 21.8709C21.4209 21.4908 22.1194 20.8959 22.6253 20.1585C22.7142 20.0288 22.7587 19.964 22.8062 19.9257C22.8516 19.889 22.8924 19.8676 22.9483 19.8508C23.0068 19.8333 23.0762 19.8333 23.215 19.8333H23.666C23.8994 19.8333 24.016 19.8333 24.1052 19.7879C24.1836 19.748 24.2473 19.6842 24.2873 19.6058C24.3327 19.5167 24.3327 19.4 24.3327 19.1667V16.3215C24.3327 16.0993 24.3327 15.9882 24.2914 15.9025C24.2505 15.8175 24.1819 15.7489 24.0968 15.7079C24.0111 15.6667 23.9001 15.6667 23.6779 15.6667C23.5171 15.6667 23.4367 15.6667 23.3719 15.6448C23.3021 15.6213 23.2531 15.59 23.2025 15.5365C23.1555 15.4869 23.1171 15.4039 23.0404 15.2379C22.7942 14.7052 22.457 14.2231 22.0487 13.8117C21.9623 13.7245 21.919 13.681 21.8935 13.6391C21.8691 13.5991 21.855 13.5647 21.8441 13.5191C21.8327 13.4714 21.8327 13.4171 21.8327 13.3085V12.3838C21.8327 12.0838 21.8327 11.9338 21.7702 11.8329C21.7155 11.7446 21.6297 11.6799 21.5297 11.6515C21.4156 11.6192 21.2714 11.6604 20.9829 11.7428L19.0057 12.3077C18.9721 12.3173 18.9553 12.3221 18.9383 12.3255C18.9231 12.3284 18.9078 12.3306 18.8923 12.3319C18.875 12.3333 18.8574 12.3333 18.8222 12.3333H15.166M10.166 17.3333H9.33268C8.41221 17.3333 7.66602 16.5871 7.66602 15.6667C7.66602 15.0498 8.00118 14.5111 8.49935 14.223M15.166 12.3333H18.4698C18.4893 12.1972 18.4993 12.0581 18.4993 11.9167C18.4993 10.3058 17.1935 9 15.5827 9C13.9719 9 12.666 10.3058 12.666 11.9167C12.666 12.2643 12.7268 12.5978 12.8384 12.907C13.5336 12.5407 14.3256 12.3333 15.166 12.3333Z" stroke="#089752" stroke-width="1.66667" stroke-linecap="round" stroke-linejoin="round"/>
</svg>
