<svg width="20" height="21" viewBox="0 0 20 21" fill="none" xmlns="http://www.w3.org/2000/svg">
<path d="M4.16596 11.3333C4.16596 8.57191 6.40453 6.33333 9.16596 6.33333M4.16596 11.3333C4.16596 12.707 4.7199 13.9513 5.61658 14.855C5.70305 14.9421 5.74629 14.9857 5.77182 15.0276C5.79617 15.0676 5.81035 15.102 5.82123 15.1475C5.83262 15.1953 5.83262 15.2496 5.83262 15.3582V17.3333C5.83262 17.5667 5.83262 17.6834 5.87804 17.7725C5.91799 17.8509 5.98173 17.9146 6.06013 17.9546C6.14926 18 6.26594 18 6.49929 18H8.08262C8.31598 18 8.43266 18 8.52179 17.9546C8.60019 17.9146 8.66393 17.8509 8.70388 17.7725C8.74929 17.6834 8.74929 17.5667 8.74929 17.3333V17C8.74929 16.7666 8.74929 16.65 8.7947 16.5608C8.83465 16.4824 8.89839 16.4187 8.97679 16.3787C9.06592 16.3333 9.1826 16.3333 9.41596 16.3333H10.5826C10.816 16.3333 10.9327 16.3333 11.0218 16.3787C11.1002 16.4187 11.1639 16.4824 11.2039 16.5608C11.2493 16.65 11.2493 16.7666 11.2493 17V17.3333C11.2493 17.5667 11.2493 17.6834 11.2947 17.7725C11.3347 17.8509 11.3984 17.9146 11.4768 17.9546C11.5659 18 11.6826 18 11.916 18H13.4993C13.7327 18 13.8494 18 13.9385 17.9546C14.0169 17.9146 14.0807 17.8509 14.1206 17.7725C14.166 17.6834 14.166 17.5667 14.166 17.3333V16.5203C14.166 16.3519 14.166 16.2677 14.19 16.2001C14.213 16.1353 14.2419 16.09 14.291 16.0419C14.3422 15.9917 14.4289 15.9514 14.6024 15.8709C15.4209 15.4908 16.1194 14.8959 16.6253 14.1585C16.7142 14.0288 16.7587 13.964 16.8062 13.9257C16.8516 13.889 16.8924 13.8676 16.9483 13.8508C17.0068 13.8333 17.0762 13.8333 17.215 13.8333H17.666C17.8994 13.8333 18.016 13.8333 18.1052 13.7879C18.1836 13.748 18.2473 13.6842 18.2873 13.6058C18.3327 13.5167 18.3327 13.4 18.3327 13.1667V10.3215C18.3327 10.0993 18.3327 9.98822 18.2914 9.90253C18.2505 9.8175 18.1819 9.74889 18.0968 9.70794C18.0111 9.66667 17.9001 9.66667 17.6779 9.66667C17.5171 9.66667 17.4367 9.66667 17.3719 9.64484C17.3021 9.6213 17.2531 9.58999 17.2025 9.53648C17.1555 9.48685 17.1171 9.40387 17.0404 9.23789C16.7942 8.70519 16.457 8.22314 16.0487 7.8117C15.9623 7.72455 15.919 7.68097 15.8935 7.63906C15.8691 7.59908 15.855 7.56466 15.8441 7.51912C15.8327 7.47139 15.8327 7.41709 15.8327 7.30848V6.38382C15.8327 6.08378 15.8327 5.93376 15.7702 5.83292C15.7155 5.74459 15.6297 5.6799 15.5297 5.65154C15.4156 5.61916 15.2714 5.66037 14.9829 5.7428L13.0057 6.30768C12.9721 6.31728 12.9553 6.32208 12.9383 6.32545C12.9231 6.32845 12.9078 6.33059 12.8923 6.33188C12.875 6.33333 12.8574 6.33333 12.8222 6.33333H9.16596M4.16596 11.3333H3.33268C2.41221 11.3333 1.66602 10.5871 1.66602 9.66667C1.66602 9.04976 2.00118 8.51115 2.49935 8.22297M9.16596 6.33333H12.4698C12.4893 6.19725 12.4993 6.05813 12.4993 5.91667C12.4993 4.30584 11.1935 3 9.58268 3C7.97185 3 6.66602 4.30584 6.66602 5.91667C6.66602 6.26434 6.72685 6.5978 6.83844 6.90699C7.53363 6.54067 8.32555 6.33333 9.16596 6.33333Z" stroke="#089752" stroke-width="1.66667" stroke-linecap="round" stroke-linejoin="round"/>
</svg>
